<svg xmlns="http://www.w3.org/2000/svg" viewBox="0 0 800 600" role="img" aria-labelledby="title desc">
  <title id="title">Intel founded in 1968</title>
  <desc id="desc">A cleaner founder scene with three people, a campus building, and an Intel badge mark.</desc>
  <defs>
    <linearGradient id="sky" x1="0" y1="0" x2="1" y2="1">
      <stop offset="0%" stop-color="#f7e9c9"/>
      <stop offset="45%" stop-color="#c5dff0"/>
      <stop offset="100%" stop-color="#5c84ae"/>
    </linearGradient>
    <linearGradient id="ground" x1="0" y1="0" x2="1" y2="0">
      <stop offset="0%" stop-color="#d8c39a"/>
      <stop offset="100%" stop-color="#9d8b6f"/>
    </linearGradient>
    <filter id="shadow" x="-20%" y="-20%" width="140%" height="140%">
      <feDropShadow dx="0" dy="10" stdDeviation="10" flood-color="#1d1b18" flood-opacity="0.28"/>
    </filter>
  </defs>
  <rect width="800" height="600" rx="34" fill="url(#sky)"/>
  <rect x="0" y="414" width="800" height="186" fill="url(#ground)"/>
  <path d="M0 396c92-28 176-42 266-40 82 2 150 18 230 22 112 6 214-10 304-32v74H0z" fill="#7e91a3" opacity="0.18"/>
  <g filter="url(#shadow)">
    <rect x="68" y="154" width="248" height="188" rx="10" fill="#d9d0bb" stroke="#8f846e" stroke-width="5"/>
    <rect x="92" y="182" width="200" height="14" fill="#62718d" opacity="0.7"/>
    <rect x="92" y="212" width="200" height="14" fill="#62718d" opacity="0.7"/>
    <rect x="92" y="242" width="200" height="14" fill="#62718d" opacity="0.7"/>
    <rect x="92" y="272" width="200" height="14" fill="#62718d" opacity="0.7"/>
    <rect x="92" y="302" width="200" height="14" fill="#62718d" opacity="0.7"/>
    <rect x="110" y="116" width="12" height="74" fill="#404c5e"/>
    <rect x="132" y="100" width="12" height="90" fill="#404c5e"/>
    <rect x="154" y="126" width="12" height="64" fill="#404c5e"/>
  </g>
  <g filter="url(#shadow)">
    <circle cx="400" cy="154" r="40" fill="none" stroke="#ffffff" stroke-width="10"/>
    <text x="400" y="160" text-anchor="middle" fill="#ffffff" font-family="Georgia, serif" font-size="46" font-style="italic" font-weight="700">intel</text>
    <text x="400" y="206" text-anchor="middle" fill="#ffffff" font-family="Times New Roman, serif" font-size="28" font-weight="700">1968</text>
  </g>
  <g filter="url(#shadow)">
    <circle cx="300" cy="340" r="26" fill="#f0d7bf"/>
    <circle cx="400" cy="326" r="26" fill="#f0d7bf"/>
    <circle cx="500" cy="340" r="26" fill="#f0d7bf"/>
    <path d="M274 452c8-44 26-66 52-66 28 0 46 20 54 66" fill="#f0e6d8"/>
    <path d="M375 452c8-44 25-66 50-66 26 0 43 20 51 66" fill="#f0e6d8"/>
    <path d="M474 452c8-44 26-66 52-66 28 0 46 20 54 66" fill="#f0e6d8"/>
    <path d="M262 318h-42l-24 76h40z" fill="#5d6c82"/>
    <path d="M386 304h-34l-22 90h38z" fill="#5d6c82"/>
    <path d="M484 318h-42l-24 76h40z" fill="#5d6c82"/>
  </g>
</svg>