<svg xmlns="http://www.w3.org/2000/svg" viewBox="0 0 800 600" role="img" aria-labelledby="title desc">
  <title id="title">Renewable electricity in 2023</title>
  <desc id="desc">A realistic renewable energy landscape with a wind turbine, solar panel, and a bright sun over water.</desc>
  <defs>
    <linearGradient id="bg" x1="0" y1="0" x2="1" y2="1">
      <stop offset="0%" stop-color="#13253a"/>
      <stop offset="55%" stop-color="#2080ad"/>
      <stop offset="100%" stop-color="#8be2de"/>
    </linearGradient>
    <linearGradient id="panel" x1="0" y1="0" x2="1" y2="1">
      <stop offset="0%" stop-color="#11263c"/>
      <stop offset="100%" stop-color="#4a86be"/>
    </linearGradient>
    <filter id="shadow" x="-20%" y="-20%" width="140%" height="140%">
      <feDropShadow dx="0" dy="12" stdDeviation="12" flood-color="#06111a" flood-opacity="0.32"/>
    </filter>
  </defs>
  <rect width="800" height="600" rx="34" fill="url(#bg)"/>
  <circle cx="632" cy="132" r="74" fill="#ffe57a" opacity="0.96" filter="url(#shadow)"/>
  <path d="M76 448c98-34 180-46 268-46 96 0 172 20 252 22 84 2 126-4 128-6v82H76z" fill="#0c3051" opacity="0.76"/>
  <path d="M144 462c30-10 56-24 82-42 22-15 42-34 56-52" fill="none" stroke="#60d37c" stroke-width="12" stroke-linecap="round" filter="url(#shadow)"/>
  <circle cx="144" cy="462" r="12" fill="#60d37c" filter="url(#shadow)"/>
  <g filter="url(#shadow)">
    <path d="M292 440l56-168 56 168" fill="none" stroke="#f1f7fb" stroke-width="16" stroke-linecap="round" stroke-linejoin="round"/>
    <path d="M292 272l56 84 56-84" fill="none" stroke="#f1f7fb" stroke-width="16" stroke-linecap="round" stroke-linejoin="round"/>
    <path d="M348 272v178" fill="none" stroke="#f1f7fb" stroke-width="16" stroke-linecap="round"/>
    <path d="M348 272l-46-48" fill="none" stroke="#f1f7fb" stroke-width="16" stroke-linecap="round"/>
    <path d="M348 272l46-48" fill="none" stroke="#f1f7fb" stroke-width="16" stroke-linecap="round"/>
    <path d="M348 272l72 22" fill="none" stroke="#f1f7fb" stroke-width="16" stroke-linecap="round"/>
  </g>
  <g filter="url(#shadow)">
    <rect x="462" y="300" width="204" height="110" rx="18" fill="url(#panel)" stroke="#eaf7ff" stroke-width="8"/>
    <g stroke="#7fe7ff" stroke-width="5" opacity="0.92">
      <path d="M480 318h168"/>
      <path d="M480 342h168"/>
      <path d="M480 366h168"/>
      <path d="M536 310v82"/>
      <path d="M592 310v82"/>
    </g>
  </g>
  <path d="M160 462h480" stroke="#dff7ff" stroke-width="10" stroke-linecap="round" opacity="0.72"/>
  <text x="58" y="528" fill="#ffffff" font-family="Times New Roman, serif" font-size="52" font-weight="700">2023</text>
</svg>