<svg xmlns="http://www.w3.org/2000/svg" viewBox="0 0 800 600" role="img" aria-labelledby="title desc">
  <title id="title">Intel sustainability summit in 2024</title>
  <desc id="desc">A cleaner conference scene with attendees seated around an oval summit table and a presentation screen above them.</desc>
  <defs>
    <linearGradient id="bg" x1="0" y1="0" x2="1" y2="1">
      <stop offset="0%" stop-color="#15233a"/>
      <stop offset="50%" stop-color="#2a6e92"/>
      <stop offset="100%" stop-color="#89d4df"/>
    </linearGradient>
    <filter id="shadow" x="-20%" y="-20%" width="140%" height="140%">
      <feDropShadow dx="0" dy="12" stdDeviation="12" flood-color="#06111a" flood-opacity="0.32"/>
    </filter>
  </defs>
  <rect width="800" height="600" rx="34" fill="url(#bg)"/>
  <circle cx="396" cy="216" r="126" fill="#ffffff" opacity="0.08"/>
  <rect x="224" y="124" width="352" height="154" rx="24" fill="#e9f7ff" opacity="0.96" filter="url(#shadow)"/>
  <rect x="248" y="148" width="304" height="106" rx="18" fill="#10253f"/>
  <path d="M270 228h260" stroke="#7fe9ff" stroke-width="10" stroke-linecap="round" opacity="0.92"/>
  <path d="M300 206h70" stroke="#ffffff" stroke-width="8" stroke-linecap="round" opacity="0.95"/>
  <path d="M406 198l28 30 30-18 22 22" fill="none" stroke="#ffd86e" stroke-width="8" stroke-linecap="round" stroke-linejoin="round"/>
  <ellipse cx="400" cy="352" rx="188" ry="58" fill="#0d2237" opacity="0.95" filter="url(#shadow)"/>
  <ellipse cx="400" cy="344" rx="132" ry="38" fill="#ffffff" opacity="0.96"/>
  <g filter="url(#shadow)">
    <circle cx="400" cy="240" r="24" fill="#0d2237"/>
    <circle cx="510" cy="286" r="24" fill="#0d2237"/>
    <circle cx="474" cy="394" r="24" fill="#0d2237"/>
    <circle cx="400" cy="438" r="24" fill="#0d2237"/>
    <circle cx="326" cy="394" r="24" fill="#0d2237"/>
    <circle cx="290" cy="286" r="24" fill="#0d2237"/>
  </g>
  <g fill="#7fe9ff">
    <rect x="392" y="268" width="16" height="60" rx="8" transform="rotate(-28 400 268)"/>
    <rect x="486" y="318" width="16" height="60" rx="8" transform="rotate(18 494 318)"/>
    <rect x="452" y="410" width="16" height="60" rx="8" transform="rotate(58 460 410)"/>
    <rect x="392" y="442" width="16" height="60" rx="8" transform="rotate(84 400 442)"/>
    <rect x="332" y="410" width="16" height="60" rx="8" transform="rotate(-58 340 410)"/>
    <rect x="296" y="318" width="16" height="60" rx="8" transform="rotate(-18 304 318)"/>
  </g>
  <path d="M236 152c28 0 50 22 50 50" fill="none" stroke="#ffd86e" stroke-width="10" stroke-linecap="round"/>
  <path d="M564 152c-28 0-50 22-50 50" fill="none" stroke="#ffd86e" stroke-width="10" stroke-linecap="round"/>
  <text x="58" y="528" fill="#ffffff" font-family="Times New Roman, serif" font-size="52" font-weight="700">2024</text>
</svg>